<?xml version="1.0" encoding="UTF-8" standalone="no"?>
<!DOCTYPE svg PUBLIC "-//W3C//DTD SVG 1.1//EN" "http://www.w3.org/Graphics/SVG/1.1/DTD/svg11.dtd">
<svg xmlns="http://www.w3.org/2000/svg" width="607" height="900" viewBox="-2312432 -10883899 12577789 18637662">
<path d="M 0 0 L 403613 0 L 403613 -435622 L 705218 -435622 L 705218 -603745 L 1290035 -603745 L 1290035 -1142434 L 1521364 -1142434 L 1521364 -1351163 L 1761189 -1351163 L 1761189 -2016037 L 2088885 -2016037 L 2088885 -2031414 L 1921010 -2031414 L 1921010 -2480556 L 1907818 -2480556 L 1907818 -2524162 L 1661372 -2524162 L 1661372 -3023346 L 1161303 -3023346 L 1161303 -2524162 L 997837 -2524162 L 997837 -2941820 L 403613 -2941820 L 403613 -3306222 L 0 -3306222 L 0 -3911387 L -382354 -3911387 L -382354 -4260872 L -896136 -4260872 L -896136 -4358900 L -1553280 -4358900 L -1553280 -4385563 L -1444005 -4385563 L -1444005 -4906281 L -1015625 -4906281 L -1015625 -4988542 L -839927 -4988542 L -839927 -4906281 L -283299 -4906281 L -283299 -5026434 L -478004 -5026434 L -478004 -5303728 L -977475 -5303728 L -977475 -5026434 L -1139916 -5026434 L -1139916 -5187331 L -1553280 -5187331 L -1553280 -5678069 L -2187141 -5678069 L -2187141 -6060668 L -2312432 -6060668 L -2312432 -6173367 L -1689404 -6173367 L -1689404 -6091945 L -1466361 -6091945 L -1466361 -6662501 L -1153317 -6662501 L -1153317 -6091945 L -895528 -6091945 L -895528 -6173367 L -534289 -6173367 L -534289 -6845428 L -315505 -6845428 L -315505 -6173367 L 0 -6173367 L 0 -6259874 L 538849 -6259874 L 538849 -6475827 L 731219 -6475827 L 731219 -6781061 L 947452 -6781061 L 947452 -6811527 L 1424620 -6811527 L 1424620 -6781061 L 1531905 -6781061 L 1531905 -7045618 L 1250659 -7045618 L 1250659 -7219634 L 731219 -7219634 L 731219 -7510104 L 906537 -7510104 L 906537 -8131060 L 927215 -8131060 L 927215 -8412735 L 934930 -8412735 L 934930 -8081238 L 1180655 -8081238 L 1180655 -8198326 L 1005954 -8198326 L 1005954 -8664679 L 1180655 -8664679 L 1180655 -8868603 L 1495221 -8868603 L 1495221 -8685784 L 1577187 -8685784 L 1577187 -8081238 L 1997091 -8081238 L 1997091 -7764572 L 2132294 -7764572 L 2132294 -7510104 L 2166413 -7510104 L 2166413 -7773387 L 2169528 -7773387 L 2169528 -8149719 L 2347159 -8149719 L 2347159 -8542396 L 2886308 -8542396 L 2886308 -9039490 L 3415799 -9039490 L 3415799 -9560576 L 3573116 -9560576 L 3573116 -9976772 L 3415799 -9976772 L 3415799 -10416413 L 4111642 -10416413 L 4111642 -10100099 L 4219301 -10100099 L 4219301 -9774404 L 4378723 -9774404 L 4378723 -10250296 L 4723869 -10250296 L 4723869 -9774404 L 4979431 -9774404 L 4979431 -9645788 L 4219301 -9645788 L 4219301 -9309681 L 4382454 -9309681 L 4382454 -9261643 L 4623410 -9261643 L 4623410 -8660609 L 4382454 -8660609 L 4382454 -8529376 L 4663346 -8529376 L 4663346 -8374299 L 5098888 -8374299 L 5098888 -7886356 L 5255751 -7886356 L 5255751 -7726198 L 4663346 -7726198 L 4663346 -7608517 L 4382454 -7608517 L 4382454 -7325150 L 4219301 -7325150 L 4219301 -6940743 L 4335110 -6940743 L 4335110 -6979159 L 4876693 -6979159 L 4876693 -7451510 L 4899190 -7451510 L 4899190 -7457220 L 5224623 -7457220 L 5224623 -7617504 L 5620580 -7617504 L 5620580 -7943906 L 5841169 -7943906 L 5841169 -7617504 L 6050419 -7617504 L 6050419 -7705559 L 6449969 -7705559 L 6449969 -7929497 L 6762865 -7929497 L 6762865 -7705559 L 7040245 -7705559 L 7040245 -8169843 L 7322198 -8169843 L 7322198 -8257286 L 7282999 -8257286 L 7282999 -8615634 L 6903672 -8615634 L 6903672 -8640016 L 6607193 -8640016 L 6607193 -9084226 L 6204110 -9084226 L 6204110 -9201863 L 6057910 -9201863 L 6057910 -9418083 L 6050419 -9418083 L 6050419 -9480869 L 6594242 -9480869 L 6594242 -9739398 L 6646556 -9739398 L 6646556 -10098529 L 6652320 -10098529 L 6652320 -10522345 L 6961589 -10522345 L 6961589 -10883899 L 7338393 -10883899 L 7338393 -10810869 L 7262209 -10810869 L 7262209 -10475287 L 7338393 -10475287 L 7338393 -10098529 L 7473291 -10098529 L 7473291 -10416413 L 7719794 -10416413 L 7719794 -10138217 L 8132043 -10138217 L 8132043 -10032000 L 8229464 -10032000 L 8229464 -9412123 L 8546791 -9412123 L 8546791 -9039490 L 8636674 -9039490 L 8636674 -8678752 L 8789362 -8678752 L 8789362 -8838105 L 8901730 -8838105 L 8901730 -9264597 L 9123940 -9264597 L 9123940 -8932354 L 9470201 -8932354 L 9470201 -8678752 L 9490626 -8678752 L 9490626 -8329915 L 9432908 -8329915 L 9432908 -8176800 L 9799476 -8176800 L 9799476 -8636244 L 9893348 -8636244 L 9893348 -8176800 L 10265357 -8176800 L 10265357 -7904495 L 10140986 -7904495 L 10140986 -7887745 L 9953937 -7887745 L 9953937 -7720896 L 9691379 -7720896 L 9691379 -7138703 L 9670220 -7138703 L 9670220 -7476721 L 9544698 -7476721 L 9544698 -7528937 L 9670220 -7528937 L 9670220 -7904495 L 9432908 -7904495 L 9432908 -7491185 L 9240332 -7491185 L 9240332 -7743150 L 8778669 -7743150 L 8778669 -8264552 L 8741622 -8264552 L 8741622 -8041610 L 8432298 -8041610 L 8432298 -7601343 L 7947993 -7601343 L 7947993 -7491185 L 7889797 -7491185 L 7889797 -7138864 L 7350657 -7138864 L 7350657 -6894076 L 7041612 -6894076 L 7041612 -6535680 L 6638440 -6535680 L 6638440 -6453924 L 5981810 -6453924 L 5981810 -6535680 L 5943259 -6535680 L 5943259 -6349634 L 5973593 -6349634 L 5973593 -5973292 L 6486457 -5973292 L 6486457 -5694634 L 6550994 -5694634 L 6550994 -5294147 L 6582537 -5294147 L 6582537 -5019628 L 7038880 -5019628 L 7038880 -5296721 L 7146694 -5296721 L 7146694 -5019628 L 7609668 -5019628 L 7609668 -4951215 L 7600277 -4951215 L 7600277 -4857311 L 6869817 -4857311 L 6869817 -4896560 L 6788561 -4896560 L 6788561 -4857311 L 6063751 -4857311 L 6063751 -4951215 L 5943259 -4951215 L 5943259 -4744019 L 5834096 -4744019 L 5834096 -4819243 L 5711296 -4819243 L 5711296 -4933729 L 5554258 -4933729 L 5554258 -5447569 L 5711296 -5447569 L 5711296 -5583237 L 5426324 -5583237 L 5426324 -5751859 L 4896171 -5751859 L 4896171 -5983678 L 4571333 -5983678 L 4571333 -6535680 L 4053798 -6535680 L 4053798 -6373081 L 3947259 -6373081 L 3947259 -6357493 L 4169362 -6357493 L 4169362 -5599290 L 3947259 -5599290 L 3947259 -5505853 L 3718227 -5505853 L 3718227 -5464176 L 3116748 -5464176 L 3116748 -5152511 L 3109391 -5152511 L 3109391 -4842216 L 3695028 -4842216 L 3695028 -4337685 L 3754809 -4337685 L 3754809 -3858716 L 4255415 -3858716 L 4255415 -3460046 L 4762023 -3460046 L 4762023 -3556882 L 5102727 -3556882 L 5102727 -3460046 L 5684424 -3460046 L 5684424 -3858716 L 6142312 -3858716 L 6142312 -4166188 L 6679690 -4166188 L 6679690 -4289839 L 7027581 -4289839 L 7027581 -4166188 L 7676643 -4166188 L 7676643 -3858716 L 7702417 -3858716 L 7702417 -3680979 L 8241880 -3680979 L 8241880 -3858716 L 8611449 -3858716 L 8611449 -3417442 L 8782197 -3417442 L 8782197 -3272786 L 9085545 -3272786 L 9085545 -2873435 L 9490626 -2873435 L 9490626 -2557178 L 9226564 -2557178 L 9226564 -2264763 L 8694761 -2264763 L 8694761 -1813694 L 8625007 -1813694 L 8625007 -1805252 L 8482832 -1805252 L 8482832 -1685568 L 8401425 -1685568 L 8401425 -1075238 L 8133286 -1075238 L 8133286 -924987 L 8013402 -924987 L 8013402 -1611040 L 8010633 -1611040 L 8010633 -1813694 L 7737067 -1813694 L 7737067 -1396483 L 7100583 -1396483 L 7100583 -1020713 L 7561055 -1020713 L 7561055 -581957 L 7741828 -581957 L 7741828 -193085 L 8057932 -193085 L 8057932 -710506 L 8320150 -710506 L 8320150 -923521 L 8727727 -923521 L 8727727 -1582600 L 9091840 -1582600 L 9091840 -1323268 L 9006877 -1323268 L 9006877 -1106163 L 9091840 -1106163 L 9091840 -714518 L 9200005 -714518 L 9200005 -193085 L 9226564 -193085 L 9226564 200338 L 8833584 200338 L 8833584 269105 L 8425440 269105 L 8425440 523725 L 8061856 523725 L 8061856 938379 L 7640247 938379 L 7640247 533566 L 7160200 533566 L 7160200 938379 L 7108963 938379 L 7108963 1214880 L 7517768 1214880 L 7517768 1557902 L 7678561 1557902 L 7678561 1213669 L 8220148 1213669 L 8220148 1557902 L 8453459 1557902 L 8453459 1939530 L 8674272 1939530 L 8674272 2296194 L 8532211 2296194 L 8532211 2631119 L 8674272 2631119 L 8674272 2739353 L 8756618 2739353 L 8756618 2833317 L 9190628 2833317 L 9190628 3163821 L 8899256 3163821 L 8899256 2849733 L 8349120 2849733 L 8349120 2445468 L 8315363 2445468 L 8315363 1821278 L 8069604 1821278 L 8069604 1731061 L 7434021 1731061 L 7434021 2022188 L 7335312 2022188 L 7335312 2365823 L 7166728 2365823 L 7166728 2468435 L 6736717 2468435 L 6736717 2365823 L 6181046 2365823 L 6181046 2022188 L 6147902 2022188 L 6147902 2591008 L 6488578 2591008 L 6488578 3192077 L 6816672 3192077 L 6816672 2591008 L 7308924 2591008 L 7308924 3021053 L 7434021 3021053 L 7434021 3163821 L 7108963 3163821 L 7108963 3534768 L 7427495 3534768 L 7427495 3644765 L 7543700 3644765 L 7543700 3814305 L 8061856 3814305 L 8061856 4259966 L 7674230 4259966 L 7674230 4585363 L 7259258 4585363 L 7259258 4771592 L 7674230 4771592 L 7674230 5021659 L 7935374 5021659 L 7935374 5449672 L 8313940 5449672 L 8313940 5413302 L 8537646 5413302 L 8537646 5038210 L 8234129 5038210 L 8234129 4843069 L 8537646 4843069 L 8537646 4641775 L 8313940 4641775 L 8313940 4566277 L 8608135 4566277 L 8608135 5197697 L 9025667 5197697 L 9025667 5449672 L 9092599 5449672 L 9092599 5734595 L 9182881 5734595 L 9182881 5863012 L 8990685 5863012 L 8990685 5900755 L 8324120 5900755 L 8324120 5863012 L 8219699 5863012 L 8219699 6375000 L 8174206 6375000 L 8174206 6607118 L 7674230 6607118 L 7674230 6921564 L 7713228 6921564 L 7713228 7236698 L 7674230 7236698 L 7674230 7753763 L 7141481 7753763 L 7141481 7625482 L 6822557 7625482 L 6822557 7416196 L 6975729 7416196 L 6975729 7123098 L 6950016 7123098 L 6950016 6722012 L 6975729 6722012 L 6975729 6608717 L 6822557 6608717 L 6822557 6499208 L 7141481 6499208 L 7141481 6360406 L 6770427 6360406 L 6770427 6514550 L 6543394 6514550 L 6543394 6894725 L 6473727 6894725 L 6473727 7075523 L 6543394 7075523 L 6543394 7326633 L 6217432 7326633 L 6217432 7630367 L 5971892 7630367 L 5971892 7745372 L 5478300 7745372 L 5478300 7555713 L 5391579 7555713 L 5391579 7435324 L 5239606 7435324 L 5239606 6803008 L 5391579 6803008 L 5391579 6514550 L 4949617 6514550 L 4949617 6360406 L 4746678 6360406 L 4746678 5947454 L 4251220 5947454 L 4251220 5797953 L 4746678 5797953 L 4746678 5315799 L 4386402 5315799 L 4386402 5154039 L 3898144 5154039 L 3898144 4552877 L 4386402 4552877 L 4386402 4297859 L 3861964 4297859 L 3861964 4052543 L 3676685 4052543 L 3676685 3864996 L 3095844 3864996 L 3095844 4297859 L 2736560 4297859 L 2736560 4098244 L 2535998 4098244 L 2535998 3550704 L 3069609 3550704 L 3069609 3413457 L 2572390 3413457 L 2572390 3378811 L 2324653 3378811 L 2324653 2824189 L 2343657 2824189 L 2343657 2328919 L 2324653 2328919 L 2324653 2011454 L 3069609 2011454 L 3069609 1964314 L 3595160 1964314 L 3595160 2255561 L 3510610 2255561 L 3510610 2669127 L 3629691 2669127 L 3629691 3093201 L 3510610 3093201 L 3510610 3125673 L 3595160 3125673 L 3595160 3281161 L 3723363 3281161 L 3723363 3550704 L 4386402 3550704 L 4386402 3471002 L 4164480 3471002 L 4164480 3017542 L 3718836 3017542 L 3718836 2758062 L 3868740 2758062 L 3868740 2500168 L 3911945 2500168 L 3911945 2115452 L 3868740 2115452 L 3868740 1832135 L 3718836 1832135 L 3718836 1659143 L 3153755 1659143 L 3153755 1349284 L 2970381 1349284 L 2970381 1192849 L 2375544 1192849 L 2375544 1127679 L 2352737 1127679 L 2352737 618702 L 1877823 618702 L 1877823 269105 L 1629140 269105 L 1629140 451136 L 1236002 451136 L 1236002 500135 L 919761 500135 L 919761 1206172 L 756490 1206172 L 756490 500135 L 457430 500135 L 457430 451136 L 0 451136 L 0 0Z " stroke="black" fill="red"/></svg>
