<?xml version="1.0" encoding="UTF-8" standalone="no"?>
<!DOCTYPE svg PUBLIC "-//W3C//DTD SVG 1.1//EN" "http://www.w3.org/Graphics/SVG/1.1/DTD/svg11.dtd">
<svg xmlns="http://www.w3.org/2000/svg" width="940" height="900" viewBox="-8 -184 303 290">
<path d="M 0 0 L 3 0 L 3 -2 L 6 -2 L 6 -11 L 12 -11 L 12 -3 L 16 -3 L 16 0 L 20 0 L 20 -7 L 23 -7 L 23 -12 L 27 -12 L 27 -18 L 31 -18 L 31 -10 L 33 -10 L 33 -7 L 38 -7 L 38 1 L 44 1 L 44 -6 L 47 -6 L 47 -11 L 55 -11 L 55 -15 L 44 -15 L 44 -18 L 53 -18 L 53 -21 L 45 -21 L 45 -24 L 43 -24 L 43 -28 L 36 -28 L 36 -31 L 31 -31 L 31 -36 L 36 -36 L 36 -42 L 30 -42 L 30 -44 L 27 -44 L 27 -36 L 24 -36 L 24 -33 L 21 -33 L 21 -30 L 18 -30 L 18 -27 L 13 -27 L 13 -21 L 8 -21 L 8 -25 L -3 -25 L -3 -21 L -8 -21 L -8 -30 L -6 -30 L -6 -33 L 0 -33 L 0 -37 L 6 -37 L 6 -43 L 14 -43 L 14 -47 L 17 -47 L 17 -53 L 21 -53 L 21 -58 L 28 -58 L 28 -53 L 32 -53 L 32 -56 L 40 -56 L 40 -62 L 50 -62 L 50 -68 L 40 -68 L 40 -72 L 43 -72 L 43 -75 L 39 -75 L 39 -81 L 36 -81 L 36 -86 L 33 -86 L 33 -89 L 26 -89 L 26 -93 L 18 -93 L 18 -86 L 9 -86 L 9 -82 L 18 -82 L 18 -77 L 14 -77 L 14 -75 L 6 -75 L 6 -83 L 2 -83 L 2 -86 L -4 -86 L -4 -90 L -8 -90 L -8 -99 L -4 -99 L -4 -108 L -1 -108 L -1 -112 L 4 -112 L 4 -107 L 11 -107 L 11 -112 L 20 -112 L 20 -105 L 29 -105 L 29 -99 L 33 -99 L 33 -94 L 38 -94 L 38 -99 L 44 -99 L 44 -101 L 53 -101 L 53 -106 L 47 -106 L 47 -112 L 43 -112 L 43 -117 L 36 -117 L 36 -122 L 30 -122 L 30 -125 L 25 -125 L 25 -131 L 21 -131 L 21 -128 L 16 -128 L 16 -122 L 12 -122 L 12 -119 L 8 -119 L 8 -117 L 0 -117 L 0 -123 L 5 -123 L 5 -129 L 9 -129 L 9 -135 L 15 -135 L 15 -138 L 19 -138 L 19 -144 L 29 -144 L 29 -146 L 34 -146 L 34 -153 L 43 -153 L 43 -155 L 47 -155 L 47 -164 L 50 -164 L 50 -167 L 43 -167 L 43 -172 L 50 -172 L 50 -177 L 54 -177 L 54 -180 L 61 -180 L 61 -184 L 68 -184 L 68 -178 L 70 -178 L 70 -175 L 63 -175 L 63 -167 L 61 -167 L 61 -164 L 70 -164 L 70 -159 L 79 -159 L 79 -155 L 86 -155 L 86 -148 L 94 -148 L 94 -145 L 86 -145 L 86 -138 L 89 -138 L 89 -129 L 92 -129 L 92 -126 L 98 -126 L 98 -123 L 92 -123 L 92 -121 L 88 -121 L 88 -114 L 82 -114 L 82 -112 L 79 -112 L 79 -108 L 85 -108 L 85 -102 L 89 -102 L 89 -98 L 85 -98 L 85 -90 L 79 -90 L 79 -84 L 85 -84 L 85 -81 L 89 -81 L 89 -71 L 94 -71 L 94 -63 L 97 -63 L 97 -59 L 101 -59 L 101 -56 L 109 -56 L 109 -49 L 113 -49 L 113 -54 L 116 -54 L 116 -59 L 124 -59 L 124 -62 L 116 -62 L 116 -67 L 122 -67 L 122 -72 L 128 -72 L 128 -78 L 136 -78 L 136 -81 L 142 -81 L 142 -83 L 148 -83 L 148 -88 L 152 -88 L 152 -93 L 155 -93 L 155 -87 L 161 -87 L 161 -93 L 166 -93 L 166 -96 L 169 -96 L 169 -104 L 176 -104 L 176 -108 L 181 -108 L 181 -114 L 187 -114 L 187 -116 L 191 -116 L 191 -123 L 193 -123 L 193 -131 L 196 -131 L 196 -134 L 193 -134 L 193 -144 L 189 -144 L 189 -149 L 181 -149 L 181 -152 L 189 -152 L 189 -159 L 181 -159 L 181 -166 L 177 -166 L 177 -168 L 169 -168 L 169 -172 L 172 -172 L 172 -176 L 175 -176 L 175 -180 L 183 -180 L 183 -184 L 190 -184 L 190 -180 L 193 -180 L 193 -172 L 200 -172 L 200 -164 L 203 -164 L 203 -157 L 210 -157 L 210 -164 L 215 -164 L 215 -159 L 218 -159 L 218 -150 L 221 -150 L 221 -144 L 218 -144 L 218 -135 L 216 -135 L 216 -132 L 221 -132 L 221 -129 L 214 -129 L 214 -122 L 210 -122 L 210 -115 L 215 -115 L 215 -110 L 221 -110 L 221 -105 L 228 -105 L 228 -102 L 231 -102 L 231 -107 L 239 -107 L 239 -113 L 249 -113 L 249 -117 L 254 -117 L 254 -125 L 248 -125 L 248 -130 L 245 -130 L 245 -138 L 243 -138 L 243 -142 L 240 -142 L 240 -133 L 238 -133 L 238 -130 L 235 -130 L 235 -125 L 231 -125 L 231 -135 L 235 -135 L 235 -147 L 237 -147 L 237 -152 L 244 -152 L 244 -155 L 239 -155 L 239 -160 L 234 -160 L 234 -165 L 229 -165 L 229 -168 L 235 -168 L 235 -174 L 241 -174 L 241 -168 L 244 -168 L 244 -171 L 249 -171 L 249 -167 L 252 -167 L 252 -159 L 254 -159 L 254 -152 L 258 -152 L 258 -164 L 262 -164 L 262 -155 L 269 -155 L 269 -149 L 274 -149 L 274 -147 L 278 -147 L 278 -139 L 285 -139 L 285 -135 L 274 -135 L 274 -133 L 271 -133 L 271 -130 L 268 -130 L 268 -126 L 275 -126 L 275 -119 L 277 -119 L 277 -126 L 285 -126 L 285 -119 L 291 -119 L 291 -113 L 295 -113 L 295 -105 L 292 -105 L 292 -102 L 288 -102 L 288 -95 L 282 -95 L 282 -91 L 279 -91 L 279 -86 L 271 -86 L 271 -91 L 265 -91 L 265 -95 L 262 -95 L 262 -91 L 260 -91 L 260 -87 L 256 -87 L 256 -85 L 248 -85 L 248 -81 L 243 -81 L 243 -78 L 232 -78 L 232 -75 L 230 -75 L 230 -73 L 220 -73 L 220 -78 L 214 -78 L 214 -76 L 211 -76 L 211 -80 L 203 -80 L 203 -76 L 200 -76 L 200 -71 L 207 -71 L 207 -67 L 210 -67 L 210 -71 L 217 -71 L 217 -65 L 225 -65 L 225 -61 L 229 -61 L 229 -70 L 234 -70 L 234 -61 L 238 -61 L 238 -58 L 245 -58 L 245 -51 L 252 -51 L 252 -43 L 254 -43 L 254 -39 L 262 -39 L 262 -34 L 257 -34 L 257 -30 L 248 -30 L 248 -27 L 242 -27 L 242 -23 L 237 -23 L 237 -19 L 242 -19 L 242 -16 L 247 -16 L 247 -14 L 255 -14 L 255 -9 L 249 -9 L 249 0 L 247 0 L 247 -9 L 242 -9 L 242 -6 L 237 -6 L 237 0 L 232 0 L 232 -11 L 229 -11 L 229 -14 L 223 -14 L 223 -22 L 221 -22 L 221 -34 L 218 -34 L 218 -26 L 214 -26 L 214 -20 L 210 -20 L 210 -15 L 206 -15 L 206 -10 L 213 -10 L 213 -5 L 222 -5 L 222 -2 L 215 -2 L 215 4 L 213 4 L 213 -2 L 206 -2 L 206 1 L 200 1 L 200 5 L 196 5 L 196 10 L 192 10 L 192 16 L 186 16 L 186 21 L 179 21 L 179 16 L 176 16 L 176 21 L 171 21 L 171 25 L 175 25 L 175 30 L 171 30 L 171 36 L 168 36 L 168 39 L 159 39 L 159 41 L 156 41 L 156 44 L 159 44 L 159 46 L 168 46 L 168 51 L 161 51 L 161 55 L 154 55 L 154 57 L 146 57 L 146 60 L 144 60 L 144 65 L 140 65 L 140 71 L 144 71 L 144 78 L 137 78 L 137 70 L 134 70 L 134 57 L 130 57 L 130 66 L 128 66 L 128 69 L 121 69 L 121 73 L 112 73 L 112 77 L 105 77 L 105 82 L 97 82 L 97 86 L 102 86 L 102 89 L 110 89 L 110 92 L 104 92 L 104 94 L 97 94 L 97 98 L 91 98 L 91 106 L 84 106 L 84 102 L 80 102 L 80 93 L 78 93 L 78 90 L 72 90 L 72 81 L 69 81 L 69 73 L 67 73 L 67 69 L 61 69 L 61 64 L 55 64 L 55 60 L 52 60 L 52 56 L 42 56 L 42 54 L 33 54 L 33 48 L 37 48 L 37 45 L 45 45 L 45 41 L 36 41 L 36 39 L 33 39 L 33 33 L 23 33 L 23 29 L 21 29 L 21 21 L 16 21 L 16 30 L 10 30 L 10 21 L 6 21 L 6 16 L 3 16 L 3 8 L 0 8 L 0 0Z " stroke="black" fill="red"/></svg>
