<?xml version="1.0" encoding="UTF-8" standalone="no"?>
<!DOCTYPE svg PUBLIC "-//W3C//DTD SVG 1.1//EN"
 "http://www.w3.org/Graphics/SVG/1.1/DTD/svg11.dtd">
<!-- Generated by graphviz version 9.0.0 (20230911.1827)
 -->
<!-- Pages: 1 -->
<svg width="1419pt" height="335pt"
 viewBox="0.00 0.00 1418.50 334.83" xmlns="http://www.w3.org/2000/svg" xmlns:xlink="http://www.w3.org/1999/xlink">
<g id="graph0" class="graph" transform="scale(1 1) rotate(0) translate(4 330.83)">
<polygon fill="white" stroke="none" points="-4,4 -4,-330.83 1414.5,-330.83 1414.5,4 -4,4"/>
<!-- 1x0 -->
<g id="node1" class="node">
<title>1x0</title>
<polygon fill="none" stroke="red" points="54,-176.33 0,-176.33 0,-140.33 54,-140.33 54,-176.33"/>
<text text-anchor="middle" x="27" y="-153.28" font-family="Times,serif" font-size="14.00">1x0</text>
</g>
<!-- 19x11 -->
<g id="node2" class="node">
<title>19x11</title>
<polygon fill="none" stroke="red" points="164.25,-176.33 110.25,-176.33 110.25,-140.33 164.25,-140.33 164.25,-176.33"/>
<text text-anchor="middle" x="137.25" y="-153.28" font-family="Times,serif" font-size="14.00">19x11</text>
</g>
<!-- 1x0&#45;&gt;19x11 -->
<g id="edge1" class="edge">
<title>1x0&#45;&gt;19x11</title>
<path fill="none" stroke="red" d="M54.48,-158.33C67.82,-158.33 84.21,-158.33 98.81,-158.33"/>
<polygon fill="red" stroke="red" points="98.53,-161.83 108.53,-158.33 98.53,-154.83 98.53,-161.83"/>
<text text-anchor="middle" x="82.12" y="-161.53" font-family="Times,serif" font-size="14.00">105</text>
</g>
<!-- 35x9 -->
<g id="node3" class="node">
<title>35x9</title>
<polygon fill="none" stroke="red" points="274.5,-203.33 220.5,-203.33 220.5,-167.33 274.5,-167.33 274.5,-203.33"/>
<text text-anchor="middle" x="247.5" y="-180.28" font-family="Times,serif" font-size="14.00">35x9</text>
</g>
<!-- 19x11&#45;&gt;35x9 -->
<g id="edge2" class="edge">
<title>19x11&#45;&gt;35x9</title>
<path fill="none" stroke="black" d="M164.73,-164.94C181.63,-169.15 203.45,-174.6 220.29,-178.8"/>
<text text-anchor="middle" x="192.38" y="-177.53" font-family="Times,serif" font-size="14.00">118</text>
</g>
<!-- 13x33 -->
<g id="node4" class="node">
<title>13x33</title>
<polygon fill="none" stroke="red" points="274.5,-149.33 220.5,-149.33 220.5,-113.33 274.5,-113.33 274.5,-149.33"/>
<text text-anchor="middle" x="247.5" y="-126.28" font-family="Times,serif" font-size="14.00">13x33</text>
</g>
<!-- 19x11&#45;&gt;13x33 -->
<g id="edge3" class="edge">
<title>19x11&#45;&gt;13x33</title>
<path fill="none" stroke="red" d="M164.73,-151.73C178.2,-148.37 194.79,-144.23 209.49,-140.56"/>
<polygon fill="red" stroke="red" points="209.97,-144.05 218.82,-138.24 208.27,-137.26 209.97,-144.05"/>
<text text-anchor="middle" x="192.38" y="-150.53" font-family="Times,serif" font-size="14.00">216</text>
</g>
<!-- 53x11 -->
<g id="node5" class="node">
<title>53x11</title>
<polygon fill="none" stroke="red" points="384.75,-236.33 330.75,-236.33 330.75,-200.33 384.75,-200.33 384.75,-236.33"/>
<text text-anchor="middle" x="357.75" y="-213.28" font-family="Times,serif" font-size="14.00">53x11</text>
</g>
<!-- 35x9&#45;&gt;53x11 -->
<g id="edge4" class="edge">
<title>35x9&#45;&gt;53x11</title>
<path fill="none" stroke="red" d="M274.98,-193.41C288.45,-197.51 305.04,-202.57 319.74,-207.05"/>
<polygon fill="red" stroke="red" points="318.51,-210.34 329.09,-209.9 320.55,-203.64 318.51,-210.34"/>
<text text-anchor="middle" x="302.62" y="-208.53" font-family="Times,serif" font-size="14.00">116</text>
</g>
<!-- 43x39 -->
<g id="node10" class="node">
<title>43x39</title>
<polygon fill="none" stroke="red" points="384.75,-176.33 330.75,-176.33 330.75,-140.33 384.75,-140.33 384.75,-176.33"/>
<text text-anchor="middle" x="357.75" y="-153.28" font-family="Times,serif" font-size="14.00">43x39</text>
</g>
<!-- 35x9&#45;&gt;43x39 -->
<g id="edge5" class="edge">
<title>35x9&#45;&gt;43x39</title>
<path fill="none" stroke="red" d="M285.8,-176.03C300.54,-172.35 317.12,-168.22 330.54,-164.87"/>
<polygon fill="red" stroke="red" points="285.31,-172.55 276.45,-178.36 287,-179.34 285.31,-172.55"/>
<text text-anchor="middle" x="302.62" y="-177.53" font-family="Times,serif" font-size="14.00">182</text>
</g>
<!-- 13x65 -->
<g id="node6" class="node">
<title>13x65</title>
<polygon fill="none" stroke="red" points="384.75,-116.33 330.75,-116.33 330.75,-80.33 384.75,-80.33 384.75,-116.33"/>
<text text-anchor="middle" x="357.75" y="-93.28" font-family="Times,serif" font-size="14.00">13x65</text>
</g>
<!-- 13x33&#45;&gt;13x65 -->
<g id="edge7" class="edge">
<title>13x33&#45;&gt;13x65</title>
<path fill="none" stroke="red" d="M274.98,-123.26C288.45,-119.16 305.04,-114.1 319.74,-109.62"/>
<polygon fill="red" stroke="red" points="320.55,-113.03 329.09,-106.76 318.51,-106.33 320.55,-113.03"/>
<text text-anchor="middle" x="302.62" y="-121.53" font-family="Times,serif" font-size="14.00">332</text>
</g>
<!-- 13x33&#45;&gt;43x39 -->
<g id="edge6" class="edge">
<title>13x33&#45;&gt;43x39</title>
<path fill="none" stroke="black" d="M274.98,-137.94C291.88,-142.15 313.7,-147.6 330.54,-151.8"/>
<text text-anchor="middle" x="302.62" y="-150.53" font-family="Times,serif" font-size="14.00">196</text>
</g>
<!-- 75x15 -->
<g id="node7" class="node">
<title>75x15</title>
<polygon fill="none" stroke="red" points="495,-276.33 441,-276.33 441,-240.33 495,-240.33 495,-276.33"/>
<text text-anchor="middle" x="468" y="-253.28" font-family="Times,serif" font-size="14.00">75x15</text>
</g>
<!-- 53x11&#45;&gt;75x15 -->
<g id="edge9" class="edge">
<title>53x11&#45;&gt;75x15</title>
<path fill="none" stroke="red" d="M385.23,-228.12C398.7,-233.1 415.29,-239.23 429.99,-244.66"/>
<polygon fill="red" stroke="red" points="428.78,-247.94 439.37,-248.13 431.21,-241.38 428.78,-247.94"/>
<text text-anchor="middle" x="412.88" y="-245.53" font-family="Times,serif" font-size="14.00">226</text>
</g>
<!-- 53x35 -->
<g id="node12" class="node">
<title>53x35</title>
<polygon fill="none" stroke="red" points="495,-216.33 441,-216.33 441,-180.33 495,-180.33 495,-216.33"/>
<text text-anchor="middle" x="468" y="-193.28" font-family="Times,serif" font-size="14.00">53x35</text>
</g>
<!-- 53x11&#45;&gt;53x35 -->
<g id="edge8" class="edge">
<title>53x11&#45;&gt;53x35</title>
<path fill="none" stroke="black" d="M385.23,-213.44C402.13,-210.32 423.95,-206.29 440.79,-203.18"/>
<text text-anchor="middle" x="412.88" y="-213.53" font-family="Times,serif" font-size="14.00">100</text>
</g>
<!-- 17x87 -->
<g id="node9" class="node">
<title>17x87</title>
<polygon fill="none" stroke="red" points="495,-76.33 441,-76.33 441,-40.33 495,-40.33 495,-76.33"/>
<text text-anchor="middle" x="468" y="-53.28" font-family="Times,serif" font-size="14.00">17x87</text>
</g>
<!-- 13x65&#45;&gt;17x87 -->
<g id="edge11" class="edge">
<title>13x65&#45;&gt;17x87</title>
<path fill="none" stroke="red" d="M384.94,-84.61C390.72,-81.84 396.88,-79.09 402.75,-76.83 411.36,-73.52 420.81,-70.48 429.76,-67.87"/>
<polygon fill="red" stroke="red" points="430.57,-71.27 439.26,-65.2 428.68,-64.53 430.57,-71.27"/>
<text text-anchor="middle" x="412.88" y="-80.53" font-family="Times,serif" font-size="14.00">222</text>
</g>
<!-- 33x55 -->
<g id="node11" class="node">
<title>33x55</title>
<polygon fill="none" stroke="red" points="495,-143.33 441,-143.33 441,-107.33 495,-107.33 495,-143.33"/>
<text text-anchor="middle" x="468" y="-120.28" font-family="Times,serif" font-size="14.00">33x55</text>
</g>
<!-- 13x65&#45;&gt;33x55 -->
<g id="edge10" class="edge">
<title>13x65&#45;&gt;33x55</title>
<path fill="none" stroke="black" d="M385.14,-96.02C396.92,-95.73 410.86,-96.42 423,-99.83 429.12,-101.56 435.28,-104.33 440.97,-107.42"/>
<text text-anchor="middle" x="412.88" y="-103.53" font-family="Times,serif" font-size="14.00">86</text>
</g>
<!-- 101x13 -->
<g id="node8" class="node">
<title>101x13</title>
<polygon fill="none" stroke="red" points="607.75,-316.33 551.25,-316.33 551.25,-280.33 607.75,-280.33 607.75,-316.33"/>
<text text-anchor="middle" x="579.5" y="-293.28" font-family="Times,serif" font-size="14.00">101x13</text>
</g>
<!-- 75x15&#45;&gt;101x13 -->
<g id="edge13" class="edge">
<title>75x15&#45;&gt;101x13</title>
<path fill="none" stroke="red" d="M495.23,-267.92C508.77,-272.86 525.54,-278.99 540.48,-284.45"/>
<polygon fill="red" stroke="red" points="538.94,-287.61 549.54,-287.75 541.34,-281.04 538.94,-287.61"/>
<text text-anchor="middle" x="523.12" y="-284.53" font-family="Times,serif" font-size="14.00">256</text>
</g>
<!-- 81x39 -->
<g id="node14" class="node">
<title>81x39</title>
<polygon fill="none" stroke="red" points="606.5,-256.33 552.5,-256.33 552.5,-220.33 606.5,-220.33 606.5,-256.33"/>
<text text-anchor="middle" x="579.5" y="-233.28" font-family="Times,serif" font-size="14.00">81x39</text>
</g>
<!-- 75x15&#45;&gt;81x39 -->
<g id="edge12" class="edge">
<title>75x15&#45;&gt;81x39</title>
<path fill="none" stroke="black" d="M495.23,-253.54C512.44,-250.4 534.86,-246.3 552.11,-243.15"/>
<text text-anchor="middle" x="523.12" y="-253.53" font-family="Times,serif" font-size="14.00">138</text>
</g>
<!-- 107x37 -->
<g id="node18" class="node">
<title>107x37</title>
<polygon fill="none" stroke="red" points="720.5,-285.33 664,-285.33 664,-249.33 720.5,-249.33 720.5,-285.33"/>
<text text-anchor="middle" x="692.25" y="-262.28" font-family="Times,serif" font-size="14.00">107x37</text>
</g>
<!-- 101x13&#45;&gt;107x37 -->
<g id="edge14" class="edge">
<title>101x13&#45;&gt;107x37</title>
<path fill="none" stroke="black" d="M608.16,-290.59C625.08,-285.86 646.64,-279.82 663.56,-275.09"/>
<text text-anchor="middle" x="635.88" y="-289.53" font-family="Times,serif" font-size="14.00">110</text>
</g>
<!-- 123x41 -->
<g id="node20" class="node">
<title>123x41</title>
<polygon fill="none" stroke="red" points="833.25,-316.33 776.75,-316.33 776.75,-280.33 833.25,-280.33 833.25,-316.33"/>
<text text-anchor="middle" x="805" y="-293.28" font-family="Times,serif" font-size="14.00">123x41</text>
</g>
<!-- 101x13&#45;&gt;123x41 -->
<g id="edge15" class="edge">
<title>101x13&#45;&gt;123x41</title>
<path fill="none" stroke="red" d="M608.16,-304.01C613.95,-304.98 620.03,-305.83 625.75,-306.33 684.64,-311.5 699.86,-311.5 758.75,-306.33 760.81,-306.15 762.91,-305.93 765.03,-305.67"/>
<polygon fill="red" stroke="red" points="765.46,-309.14 774.85,-304.23 764.44,-302.22 765.46,-309.14"/>
<text text-anchor="middle" x="692.25" y="-313.53" font-family="Times,serif" font-size="14.00">646</text>
</g>
<!-- 17x113 -->
<g id="node13" class="node">
<title>17x113</title>
<polygon fill="none" stroke="red" points="607.75,-36.33 551.25,-36.33 551.25,-0.33 607.75,-0.33 607.75,-36.33"/>
<text text-anchor="middle" x="579.5" y="-13.28" font-family="Times,serif" font-size="14.00">17x113</text>
</g>
<!-- 17x87&#45;&gt;17x113 -->
<g id="edge17" class="edge">
<title>17x87&#45;&gt;17x113</title>
<path fill="none" stroke="red" d="M495.18,-44.59C500.97,-41.82 507.12,-39.08 513,-36.83 521.62,-33.54 531.07,-30.54 540.04,-27.95"/>
<polygon fill="red" stroke="red" points="540.89,-31.35 549.6,-25.31 539.03,-24.6 540.89,-31.35"/>
<text text-anchor="middle" x="523.12" y="-40.53" font-family="Times,serif" font-size="14.00">246</text>
</g>
<!-- 43x79 -->
<g id="node15" class="node">
<title>43x79</title>
<polygon fill="none" stroke="red" points="606.5,-103.33 552.5,-103.33 552.5,-67.33 606.5,-67.33 606.5,-103.33"/>
<text text-anchor="middle" x="579.5" y="-80.28" font-family="Times,serif" font-size="14.00">43x79</text>
</g>
<!-- 17x87&#45;&gt;43x79 -->
<g id="edge16" class="edge">
<title>17x87&#45;&gt;43x79</title>
<path fill="none" stroke="black" d="M495.37,-56.09C507.15,-55.81 521.09,-56.49 533.25,-59.83 539.68,-61.6 546.18,-64.48 552.16,-67.68"/>
<text text-anchor="middle" x="523.12" y="-63.53" font-family="Times,serif" font-size="14.00">138</text>
</g>
<!-- 43x39&#45;&gt;33x55 -->
<g id="edge19" class="edge">
<title>43x39&#45;&gt;33x55</title>
<path fill="none" stroke="red" d="M395.53,-142.32C397.96,-141.43 400.38,-140.59 402.75,-139.83 415.06,-135.89 429.02,-132.61 440.77,-130.16"/>
<polygon fill="red" stroke="red" points="394.45,-138.98 386.4,-145.87 396.99,-145.5 394.45,-138.98"/>
<text text-anchor="middle" x="412.88" y="-143.53" font-family="Times,serif" font-size="14.00">90</text>
</g>
<!-- 43x39&#45;&gt;53x35 -->
<g id="edge18" class="edge">
<title>43x39&#45;&gt;53x35</title>
<path fill="none" stroke="black" d="M385.23,-168.12C402.13,-174.36 423.95,-182.43 440.79,-188.65"/>
<text text-anchor="middle" x="412.88" y="-185.53" font-family="Times,serif" font-size="14.00">26</text>
</g>
<!-- 33x55&#45;&gt;43x79 -->
<g id="edge21" class="edge">
<title>33x55&#45;&gt;43x79</title>
<path fill="none" stroke="red" d="M505.83,-111.88C521,-106.34 538.23,-100.04 552.11,-94.98"/>
<polygon fill="red" stroke="red" points="504.84,-108.52 496.65,-115.23 507.24,-115.09 504.84,-108.52"/>
<text text-anchor="middle" x="523.12" y="-112.53" font-family="Times,serif" font-size="14.00">150</text>
</g>
<!-- 57x61 -->
<g id="node16" class="node">
<title>57x61</title>
<polygon fill="none" stroke="red" points="606.5,-177.33 552.5,-177.33 552.5,-141.33 606.5,-141.33 606.5,-177.33"/>
<text text-anchor="middle" x="579.5" y="-154.28" font-family="Times,serif" font-size="14.00">57x61</text>
</g>
<!-- 33x55&#45;&gt;57x61 -->
<g id="edge20" class="edge">
<title>33x55&#45;&gt;57x61</title>
<path fill="none" stroke="black" d="M495.24,-130.11C507,-132.54 520.96,-135.84 533.25,-139.83 539.43,-141.84 545.93,-144.38 552.02,-146.95"/>
<text text-anchor="middle" x="523.12" y="-143.53" font-family="Times,serif" font-size="14.00">94</text>
</g>
<!-- 53x35&#45;&gt;81x39 -->
<g id="edge22" class="edge">
<title>53x35&#45;&gt;81x39</title>
<path fill="none" stroke="red" d="M505.83,-211.79C521,-217.33 538.23,-223.62 552.11,-228.69"/>
<polygon fill="red" stroke="red" points="507.24,-208.58 496.65,-208.43 504.84,-215.15 507.24,-208.58"/>
<text text-anchor="middle" x="523.12" y="-224.53" font-family="Times,serif" font-size="14.00">136</text>
</g>
<!-- 53x35&#45;&gt;57x61 -->
<g id="edge23" class="edge">
<title>53x35&#45;&gt;57x61</title>
<path fill="none" stroke="red" d="M495.36,-186.77C501.14,-184.38 507.24,-181.94 513,-179.83 522.07,-176.52 531.96,-173.25 541.25,-170.32"/>
<polygon fill="red" stroke="red" points="542.2,-173.69 550.73,-167.4 540.14,-167 542.2,-173.69"/>
<text text-anchor="middle" x="523.12" y="-183.53" font-family="Times,serif" font-size="14.00">142</text>
</g>
<!-- 37x103 -->
<g id="node17" class="node">
<title>37x103</title>
<polygon fill="none" stroke="red" points="720.5,-63.33 664,-63.33 664,-27.33 720.5,-27.33 720.5,-63.33"/>
<text text-anchor="middle" x="692.25" y="-40.28" font-family="Times,serif" font-size="14.00">37x103</text>
</g>
<!-- 17x113&#45;&gt;37x103 -->
<g id="edge24" class="edge">
<title>17x113&#45;&gt;37x103</title>
<path fill="none" stroke="black" d="M608.02,-16.01C619.89,-15.76 633.83,-16.49 646,-19.83 652.09,-21.51 658.23,-24.17 663.94,-27.16"/>
<text text-anchor="middle" x="635.88" y="-23.53" font-family="Times,serif" font-size="14.00">166</text>
</g>
<!-- 39x135 -->
<g id="node22" class="node">
<title>39x135</title>
<polygon fill="none" stroke="red" points="833.25,-36.33 776.75,-36.33 776.75,-0.33 833.25,-0.33 833.25,-36.33"/>
<text text-anchor="middle" x="805" y="-13.28" font-family="Times,serif" font-size="14.00">39x135</text>
</g>
<!-- 17x113&#45;&gt;39x135 -->
<g id="edge25" class="edge">
<title>17x113&#45;&gt;39x135</title>
<path fill="none" stroke="red" d="M608.13,-11.47C624.3,-7.8 645.18,-3.68 664,-1.83 688.99,0.61 695.51,0.61 720.5,-1.83 735.21,-3.27 751.16,-6.11 765.15,-9.02"/>
<polygon fill="red" stroke="red" points="764.37,-12.44 774.89,-11.14 765.86,-5.6 764.37,-12.44"/>
<text text-anchor="middle" x="692.25" y="-5.53" font-family="Times,serif" font-size="14.00">428</text>
</g>
<!-- 81x39&#45;&gt;107x37 -->
<g id="edge27" class="edge">
<title>81x39&#45;&gt;107x37</title>
<path fill="none" stroke="red" d="M617.75,-248.09C632.76,-252.02 649.77,-256.47 663.65,-260.11"/>
<polygon fill="red" stroke="red" points="618.77,-244.74 608.21,-245.59 617,-251.51 618.77,-244.74"/>
<text text-anchor="middle" x="635.88" y="-259.53" font-family="Times,serif" font-size="14.00">172</text>
</g>
<!-- 85x55 -->
<g id="node19" class="node">
<title>85x55</title>
<polygon fill="none" stroke="red" points="719.25,-213.33 665.25,-213.33 665.25,-177.33 719.25,-177.33 719.25,-213.33"/>
<text text-anchor="middle" x="692.25" y="-190.28" font-family="Times,serif" font-size="14.00">85x55</text>
</g>
<!-- 81x39&#45;&gt;85x55 -->
<g id="edge26" class="edge">
<title>81x39&#45;&gt;85x55</title>
<path fill="none" stroke="black" d="M606.75,-228.14C624.27,-221.34 647.24,-212.42 664.81,-205.6"/>
<text text-anchor="middle" x="635.88" y="-224.53" font-family="Times,serif" font-size="14.00">80</text>
</g>
<!-- 43x79&#45;&gt;37x103 -->
<g id="edge29" class="edge">
<title>43x79&#45;&gt;37x103</title>
<path fill="none" stroke="red" d="M617.31,-72.04C632.43,-66.58 649.64,-60.36 663.65,-55.3"/>
<polygon fill="red" stroke="red" points="616.39,-68.65 608.17,-75.34 618.76,-75.24 616.39,-68.65"/>
<text text-anchor="middle" x="635.88" y="-72.53" font-family="Times,serif" font-size="14.00">134</text>
</g>
<!-- 65x79 -->
<g id="node21" class="node">
<title>65x79</title>
<polygon fill="none" stroke="black" points="719.25,-123.33 665.25,-123.33 665.25,-87.33 719.25,-87.33 719.25,-123.33"/>
<text text-anchor="middle" x="692.25" y="-100.28" font-family="Times,serif" font-size="14.00">65x79</text>
</g>
<!-- 43x79&#45;&gt;65x79 -->
<g id="edge28" class="edge">
<title>43x79&#45;&gt;65x79</title>
<path fill="none" stroke="black" d="M606.75,-90.07C624.27,-93.24 647.24,-97.39 664.81,-100.56"/>
<text text-anchor="middle" x="635.88" y="-100.53" font-family="Times,serif" font-size="14.00">114</text>
</g>
<!-- 57x61&#45;&gt;85x55 -->
<g id="edge31" class="edge">
<title>57x61&#45;&gt;85x55</title>
<path fill="none" stroke="red" d="M606.69,-167.35C618.69,-171.08 633.09,-175.6 646,-179.83 648.69,-180.72 651.47,-181.64 654.27,-182.58"/>
<polygon fill="red" stroke="red" points="652.94,-185.82 663.54,-185.71 655.19,-179.19 652.94,-185.82"/>
<text text-anchor="middle" x="635.88" y="-183.53" font-family="Times,serif" font-size="14.00">190</text>
</g>
<!-- 57x61&#45;&gt;65x79 -->
<g id="edge30" class="edge">
<title>57x61&#45;&gt;65x79</title>
<path fill="none" stroke="black" d="M606.75,-146.54C624.27,-137.99 647.24,-126.79 664.81,-118.23"/>
<text text-anchor="middle" x="635.88" y="-140.53" font-family="Times,serif" font-size="14.00">102</text>
</g>
<!-- 37x103&#45;&gt;39x135 -->
<g id="edge33" class="edge">
<title>37x103&#45;&gt;39x135</title>
<path fill="none" stroke="red" d="M730.8,-22.43C733.35,-21.42 735.93,-20.54 738.5,-19.83 750.67,-16.49 764.61,-15.76 776.48,-16.01"/>
<polygon fill="red" stroke="red" points="729.55,-19.15 721.94,-26.52 732.48,-25.51 729.55,-19.15"/>
<text text-anchor="middle" x="748.62" y="-23.53" font-family="Times,serif" font-size="14.00">210</text>
</g>
<!-- 53x103 -->
<g id="node23" class="node">
<title>53x103</title>
<polygon fill="none" stroke="red" points="833.25,-96.33 776.75,-96.33 776.75,-60.33 833.25,-60.33 833.25,-96.33"/>
<text text-anchor="middle" x="805" y="-73.28" font-family="Times,serif" font-size="14.00">53x103</text>
</g>
<!-- 37x103&#45;&gt;53x103 -->
<g id="edge32" class="edge">
<title>37x103&#45;&gt;53x103</title>
<path fill="none" stroke="black" d="M720.91,-53.58C737.83,-58.62 759.39,-65.04 776.31,-70.08"/>
<text text-anchor="middle" x="748.62" y="-68.53" font-family="Times,serif" font-size="14.00">36</text>
</g>
<!-- 107x37&#45;&gt;123x41 -->
<g id="edge35" class="edge">
<title>107x37&#45;&gt;123x41</title>
<path fill="none" stroke="red" d="M731.72,-278.1C746.39,-282.21 762.82,-286.81 776.31,-290.58"/>
<polygon fill="red" stroke="red" points="732.94,-274.81 722.37,-275.48 731.06,-281.55 732.94,-274.81"/>
<text text-anchor="middle" x="748.62" y="-289.53" font-family="Times,serif" font-size="14.00">52</text>
</g>
<!-- 105x53 -->
<g id="node24" class="node">
<title>105x53</title>
<polygon fill="none" stroke="red" points="833.25,-249.33 776.75,-249.33 776.75,-213.33 833.25,-213.33 833.25,-249.33"/>
<text text-anchor="middle" x="805" y="-226.28" font-family="Times,serif" font-size="14.00">105x53</text>
</g>
<!-- 107x37&#45;&gt;105x53 -->
<g id="edge34" class="edge">
<title>107x37&#45;&gt;105x53</title>
<path fill="none" stroke="black" d="M720.91,-258.34C737.83,-252.84 759.39,-245.84 776.31,-240.34"/>
<text text-anchor="middle" x="748.62" y="-256.53" font-family="Times,serif" font-size="14.00">34</text>
</g>
<!-- 85x55&#45;&gt;105x53 -->
<g id="edge36" class="edge">
<title>85x55&#45;&gt;105x53</title>
<path fill="none" stroke="black" d="M719.5,-203.87C736.64,-209.44 758.99,-216.7 776.4,-222.36"/>
<text text-anchor="middle" x="748.62" y="-220.53" font-family="Times,serif" font-size="14.00">70</text>
</g>
<!-- 89x89 -->
<g id="node27" class="node">
<title>89x89</title>
<polygon fill="none" stroke="red" points="832,-175.33 778,-175.33 778,-139.33 832,-139.33 832,-175.33"/>
<text text-anchor="middle" x="805" y="-152.28" font-family="Times,serif" font-size="14.00">89x89</text>
</g>
<!-- 85x55&#45;&gt;89x89 -->
<g id="edge37" class="edge">
<title>85x55&#45;&gt;89x89</title>
<path fill="none" stroke="red" d="M719.5,-186.33C733.6,-181.49 751.23,-175.44 766.73,-170.12"/>
<polygon fill="red" stroke="red" points="767.8,-173.45 776.13,-166.9 765.53,-166.83 767.8,-173.45"/>
<text text-anchor="middle" x="748.62" y="-183.53" font-family="Times,serif" font-size="14.00">206</text>
</g>
<!-- 129x53 -->
<g id="node25" class="node">
<title>129x53</title>
<polygon fill="none" stroke="red" points="946,-276.33 889.5,-276.33 889.5,-240.33 946,-240.33 946,-276.33"/>
<text text-anchor="middle" x="917.75" y="-253.28" font-family="Times,serif" font-size="14.00">129x53</text>
</g>
<!-- 123x41&#45;&gt;129x53 -->
<g id="edge38" class="edge">
<title>123x41&#45;&gt;129x53</title>
<path fill="none" stroke="black" d="M833.66,-288.34C850.58,-282.23 872.14,-274.45 889.06,-268.34"/>
<text text-anchor="middle" x="861.38" y="-285.53" font-family="Times,serif" font-size="14.00">54</text>
</g>
<!-- 65x79&#45;&gt;53x103 -->
<g id="edge39" class="edge">
<title>65x79&#45;&gt;53x103</title>
<path fill="none" stroke="black" d="M719.5,-98.94C736.64,-94.76 758.99,-89.31 776.4,-85.06"/>
<text text-anchor="middle" x="748.62" y="-97.53" font-family="Times,serif" font-size="14.00">132</text>
</g>
<!-- 65x79&#45;&gt;89x89 -->
<g id="edge40" class="edge">
<title>65x79&#45;&gt;89x89</title>
<path fill="none" stroke="black" d="M719.5,-117.66C737.02,-125.89 759.99,-136.67 777.56,-144.92"/>
<text text-anchor="middle" x="748.62" y="-139.53" font-family="Times,serif" font-size="14.00">162</text>
</g>
<!-- 53x135 -->
<g id="node26" class="node">
<title>53x135</title>
<polygon fill="none" stroke="red" points="946,-76.33 889.5,-76.33 889.5,-40.33 946,-40.33 946,-76.33"/>
<text text-anchor="middle" x="917.75" y="-53.28" font-family="Times,serif" font-size="14.00">53x135</text>
</g>
<!-- 39x135&#45;&gt;53x135 -->
<g id="edge41" class="edge">
<title>39x135&#45;&gt;53x135</title>
<path fill="none" stroke="black" d="M833.74,-25.06C845.53,-28.2 859.33,-32.26 871.5,-36.83 877.36,-39.04 883.51,-41.7 889.31,-44.39"/>
<text text-anchor="middle" x="861.38" y="-40.53" font-family="Times,serif" font-size="14.00">78</text>
</g>
<!-- 53x103&#45;&gt;53x135 -->
<g id="edge42" class="edge">
<title>53x103&#45;&gt;53x135</title>
<path fill="none" stroke="red" d="M833.74,-65.15C839.42,-62.98 845.43,-61.05 851.25,-59.83 859.77,-58.06 869.04,-57.21 877.86,-56.89"/>
<polygon fill="red" stroke="red" points="877.62,-60.4 887.58,-56.77 877.53,-53.4 877.62,-60.4"/>
<text text-anchor="middle" x="861.38" y="-63.53" font-family="Times,serif" font-size="14.00">140</text>
</g>
<!-- 87x101 -->
<g id="node29" class="node">
<title>87x101</title>
<polygon fill="none" stroke="red" points="946,-142.33 889.5,-142.33 889.5,-106.33 946,-106.33 946,-142.33"/>
<text text-anchor="middle" x="917.75" y="-119.28" font-family="Times,serif" font-size="14.00">87x101</text>
</g>
<!-- 53x103&#45;&gt;87x101 -->
<g id="edge43" class="edge">
<title>53x103&#45;&gt;87x101</title>
<path fill="none" stroke="red" d="M844.03,-94.13C858.82,-100.27 875.44,-107.18 889.06,-112.83"/>
<polygon fill="red" stroke="red" points="845.64,-91.01 835.06,-90.4 842.95,-97.47 845.64,-91.01"/>
<text text-anchor="middle" x="861.38" y="-109.53" font-family="Times,serif" font-size="14.00">236</text>
</g>
<!-- 105x53&#45;&gt;129x53 -->
<g id="edge44" class="edge">
<title>105x53&#45;&gt;129x53</title>
<path fill="none" stroke="red" d="M833.66,-238.08C847.14,-241.36 863.57,-245.37 878.25,-248.95"/>
<polygon fill="red" stroke="red" points="877.04,-252.26 887.59,-251.22 878.7,-245.46 877.04,-252.26"/>
<text text-anchor="middle" x="861.38" y="-250.53" font-family="Times,serif" font-size="14.00">128</text>
</g>
<!-- 103x79 -->
<g id="node28" class="node">
<title>103x79</title>
<polygon fill="none" stroke="red" points="946,-209.33 889.5,-209.33 889.5,-173.33 946,-173.33 946,-209.33"/>
<text text-anchor="middle" x="917.75" y="-186.28" font-family="Times,serif" font-size="14.00">103x79</text>
</g>
<!-- 105x53&#45;&gt;103x79 -->
<g id="edge45" class="edge">
<title>105x53&#45;&gt;103x79</title>
<path fill="none" stroke="red" d="M844.47,-217.44C859.14,-212.14 875.57,-206.21 889.06,-201.34"/>
<polygon fill="red" stroke="red" points="843.3,-214.14 835.08,-220.83 845.68,-220.72 843.3,-214.14"/>
<text text-anchor="middle" x="861.38" y="-218.53" font-family="Times,serif" font-size="14.00">144</text>
</g>
<!-- 137x79 -->
<g id="node30" class="node">
<title>137x79</title>
<polygon fill="none" stroke="red" points="1062.12,-236.33 1005.62,-236.33 1005.62,-200.33 1062.12,-200.33 1062.12,-236.33"/>
<text text-anchor="middle" x="1033.88" y="-213.28" font-family="Times,serif" font-size="14.00">137x79</text>
</g>
<!-- 129x53&#45;&gt;137x79 -->
<g id="edge46" class="edge">
<title>129x53&#45;&gt;137x79</title>
<path fill="none" stroke="red" d="M946.38,-248.65C960.96,-243.54 979.06,-237.19 994.94,-231.63"/>
<polygon fill="red" stroke="red" points="995.8,-235.04 1004.07,-228.43 993.48,-228.43 995.8,-235.04"/>
<text text-anchor="middle" x="974.12" y="-245.53" font-family="Times,serif" font-size="14.00">266</text>
</g>
<!-- 85x133 -->
<g id="node31" class="node">
<title>85x133</title>
<polygon fill="none" stroke="red" points="1062.12,-116.33 1005.62,-116.33 1005.62,-80.33 1062.12,-80.33 1062.12,-116.33"/>
<text text-anchor="middle" x="1033.88" y="-93.28" font-family="Times,serif" font-size="14.00">85x133</text>
</g>
<!-- 53x135&#45;&gt;85x133 -->
<g id="edge47" class="edge">
<title>53x135&#45;&gt;85x133</title>
<path fill="none" stroke="red" d="M946.43,-65.22C958.21,-68.39 972.02,-72.43 984.25,-76.83 987.72,-78.09 991.3,-79.47 994.86,-80.92"/>
<polygon fill="red" stroke="red" points="993.41,-84.11 1003.98,-84.78 996.14,-77.66 993.41,-84.11"/>
<text text-anchor="middle" x="974.12" y="-80.53" font-family="Times,serif" font-size="14.00">230</text>
</g>
<!-- 89x89&#45;&gt;103x79 -->
<g id="edge49" class="edge">
<title>89x89&#45;&gt;103x79</title>
<path fill="none" stroke="red" d="M832.25,-165.39C846.04,-169.63 863.21,-174.9 878.46,-179.58"/>
<polygon fill="red" stroke="red" points="877.11,-182.83 887.7,-182.42 879.17,-176.14 877.11,-182.83"/>
<text text-anchor="middle" x="861.38" y="-181.53" font-family="Times,serif" font-size="14.00">88</text>
</g>
<!-- 89x89&#45;&gt;87x101 -->
<g id="edge48" class="edge">
<title>89x89&#45;&gt;87x101</title>
<path fill="none" stroke="black" d="M832.11,-146.54C838.32,-144.16 844.97,-141.78 851.25,-139.83 863.53,-136.03 877.35,-132.63 889.12,-129.99"/>
<text text-anchor="middle" x="861.38" y="-143.53" font-family="Times,serif" font-size="14.00">18</text>
</g>
<!-- 103x79&#45;&gt;137x79 -->
<g id="edge51" class="edge">
<title>103x79&#45;&gt;137x79</title>
<path fill="none" stroke="black" d="M946.38,-197.87C964.32,-202.12 987.61,-207.63 1005.5,-211.86"/>
<text text-anchor="middle" x="974.12" y="-210.53" font-family="Times,serif" font-size="14.00">166</text>
</g>
<!-- 103x111 -->
<g id="node32" class="node">
<title>103x111</title>
<polygon fill="none" stroke="red" points="1065.5,-176.33 1002.25,-176.33 1002.25,-140.33 1065.5,-140.33 1065.5,-176.33"/>
<text text-anchor="middle" x="1033.88" y="-153.28" font-family="Times,serif" font-size="14.00">103x111</text>
</g>
<!-- 103x79&#45;&gt;103x111 -->
<g id="edge50" class="edge">
<title>103x79&#45;&gt;103x111</title>
<path fill="none" stroke="black" d="M946.38,-183.35C963.13,-178.5 984.55,-172.31 1001.88,-167.3"/>
<text text-anchor="middle" x="974.12" y="-181.53" font-family="Times,serif" font-size="14.00">140</text>
</g>
<!-- 87x101&#45;&gt;85x133 -->
<g id="edge53" class="edge">
<title>87x101&#45;&gt;85x133</title>
<path fill="none" stroke="black" d="M946.13,-106.86C951.83,-103.99 957.96,-101.44 964,-99.83 977.3,-96.31 992.54,-95.65 1005.31,-95.99"/>
<text text-anchor="middle" x="974.12" y="-103.53" font-family="Times,serif" font-size="14.00">174</text>
</g>
<!-- 87x101&#45;&gt;103x111 -->
<g id="edge52" class="edge">
<title>87x101&#45;&gt;103x111</title>
<path fill="none" stroke="red" d="M957.09,-135.76C971.67,-140.1 988.07,-144.99 1001.88,-149.1"/>
<polygon fill="red" stroke="red" points="958.41,-132.5 947.83,-133 956.41,-139.21 958.41,-132.5"/>
<text text-anchor="middle" x="974.12" y="-147.53" font-family="Times,serif" font-size="14.00">118</text>
</g>
<!-- 123x111 -->
<g id="node34" class="node">
<title>123x111</title>
<polygon fill="none" stroke="red" points="1185,-203.33 1121.75,-203.33 1121.75,-167.33 1185,-167.33 1185,-203.33"/>
<text text-anchor="middle" x="1153.38" y="-180.28" font-family="Times,serif" font-size="14.00">123x111</text>
</g>
<!-- 137x79&#45;&gt;123x111 -->
<g id="edge54" class="edge">
<title>137x79&#45;&gt;123x111</title>
<path fill="none" stroke="red" d="M1062.42,-210.6C1076.75,-206.57 1094.57,-201.57 1110.56,-197.08"/>
<polygon fill="red" stroke="red" points="1111.13,-200.55 1119.81,-194.48 1109.24,-193.81 1111.13,-200.55"/>
<text text-anchor="middle" x="1093.62" y="-207.53" font-family="Times,serif" font-size="14.00">350</text>
</g>
<!-- 101x135 -->
<g id="node33" class="node">
<title>101x135</title>
<polygon fill="none" stroke="red" points="1185,-149.33 1121.75,-149.33 1121.75,-113.33 1185,-113.33 1185,-149.33"/>
<text text-anchor="middle" x="1153.38" y="-126.28" font-family="Times,serif" font-size="14.00">101x135</text>
</g>
<!-- 85x133&#45;&gt;101x135 -->
<g id="edge55" class="edge">
<title>85x133&#45;&gt;101x135</title>
<path fill="none" stroke="red" d="M1062.46,-104.94C1075.09,-108.07 1090.23,-111.96 1103.75,-115.83 1105.98,-116.47 1108.26,-117.14 1110.56,-117.83"/>
<polygon fill="red" stroke="red" points="1109.3,-121.1 1119.88,-120.69 1111.35,-114.41 1109.3,-121.1"/>
<text text-anchor="middle" x="1093.62" y="-119.53" font-family="Times,serif" font-size="14.00">70</text>
</g>
<!-- 103x111&#45;&gt;101x135 -->
<g id="edge56" class="edge">
<title>103x111&#45;&gt;101x135</title>
<path fill="none" stroke="black" d="M1065.91,-145.26C1071.68,-143.19 1077.71,-141.27 1083.5,-139.83 1095.78,-136.79 1109.57,-134.81 1121.57,-133.54"/>
<text text-anchor="middle" x="1093.62" y="-143.53" font-family="Times,serif" font-size="14.00">142</text>
</g>
<!-- 103x111&#45;&gt;123x111 -->
<g id="edge57" class="edge">
<title>103x111&#45;&gt;123x111</title>
<path fill="none" stroke="red" d="M1076.63,-167.93C1091.35,-171.31 1107.62,-175.05 1121.3,-178.19"/>
<polygon fill="red" stroke="red" points="1077.75,-164.6 1067.22,-165.77 1076.18,-171.42 1077.75,-164.6"/>
<text text-anchor="middle" x="1093.62" y="-177.53" font-family="Times,serif" font-size="14.00">172</text>
</g>
<!-- 137x135 -->
<g id="node35" class="node">
<title>137x135</title>
<polygon fill="none" stroke="red" points="1304.5,-176.33 1241.25,-176.33 1241.25,-140.33 1304.5,-140.33 1304.5,-176.33"/>
<text text-anchor="middle" x="1272.88" y="-153.28" font-family="Times,serif" font-size="14.00">137x135</text>
</g>
<!-- 101x135&#45;&gt;137x135 -->
<g id="edge58" class="edge">
<title>101x135&#45;&gt;137x135</title>
<path fill="none" stroke="red" d="M1185.42,-135.55C1197.33,-137.42 1210.99,-139.87 1223.25,-142.83 1225.5,-143.38 1227.81,-143.97 1230.12,-144.6"/>
<polygon fill="red" stroke="red" points="1228.9,-147.89 1239.48,-147.32 1230.85,-141.17 1228.9,-147.89"/>
<text text-anchor="middle" x="1213.12" y="-146.53" font-family="Times,serif" font-size="14.00">196</text>
</g>
<!-- 123x111&#45;&gt;137x135 -->
<g id="edge59" class="edge">
<title>123x111&#45;&gt;137x135</title>
<path fill="none" stroke="black" d="M1185.25,-178.24C1202.38,-174.3 1223.63,-169.42 1240.8,-165.47"/>
<text text-anchor="middle" x="1213.12" y="-177.53" font-family="Times,serif" font-size="14.00">154</text>
</g>
<!-- 139x140 -->
<g id="node36" class="node">
<title>139x140</title>
<polygon fill="none" stroke="red" points="1410.5,-176.33 1347.25,-176.33 1347.25,-140.33 1410.5,-140.33 1410.5,-176.33"/>
<text text-anchor="middle" x="1378.88" y="-153.28" font-family="Times,serif" font-size="14.00">139x140</text>
</g>
<!-- 137x135&#45;&gt;139x140 -->
<g id="edge60" class="edge">
<title>137x135&#45;&gt;139x140</title>
<path fill="none" stroke="red" d="M1304.8,-158.33C1314.45,-158.33 1325.28,-158.33 1335.58,-158.33"/>
<polygon fill="red" stroke="red" points="1335.38,-161.83 1345.38,-158.33 1335.38,-154.83 1335.38,-161.83"/>
<text text-anchor="middle" x="1325.88" y="-161.53" font-family="Times,serif" font-size="14.00">7</text>
</g>
</g>
</svg>
