<?xml version="1.0" encoding="UTF-8" standalone="no"?>
<!DOCTYPE svg PUBLIC "-//W3C//DTD SVG 1.1//EN"
 "http://www.w3.org/Graphics/SVG/1.1/DTD/svg11.dtd">
<!-- Generated by graphviz version 9.0.0 (20230911.1827)
 -->
<!-- Pages: 1 -->
<svg width="266pt" height="308pt"
 viewBox="0.00 0.00 266.12 308.42" xmlns="http://www.w3.org/2000/svg" xmlns:xlink="http://www.w3.org/1999/xlink">
<g id="graph0" class="graph" transform="scale(1 1) rotate(0) translate(4 304.42)">
<polygon fill="white" stroke="none" points="-4,4 -4,-304.42 262.12,-304.42 262.12,4 -4,4"/>
<!-- jqt -->
<g id="node1" class="node">
<title>jqt</title>
<ellipse fill="none" stroke="black" cx="29.99" cy="-103.59" rx="27" ry="18"/>
<text text-anchor="middle" x="29.99" y="-98.54" font-family="Times,serif" font-size="14.00">jqt</text>
</g>
<!-- rhn -->
<g id="node2" class="node">
<title>rhn</title>
<ellipse fill="none" stroke="black" cx="101.77" cy="-18" rx="27" ry="18"/>
<text text-anchor="middle" x="101.77" y="-12.95" font-family="Times,serif" font-size="14.00">rhn</text>
</g>
<!-- jqt&#45;&#45;rhn -->
<g id="edge1" class="edge">
<title>jqt&#45;&#45;rhn</title>
<path fill="none" stroke="black" d="M43.49,-87.49C56.32,-72.19 75.51,-49.3 88.33,-34.03"/>
</g>
<!-- xhk -->
<g id="node3" class="node">
<title>xhk</title>
<ellipse fill="none" stroke="black" cx="59.61" cy="-27.28" rx="27" ry="18"/>
<text text-anchor="middle" x="59.61" y="-22.23" font-family="Times,serif" font-size="14.00">xhk</text>
</g>
<!-- jqt&#45;&#45;xhk -->
<g id="edge2" class="edge">
<title>jqt&#45;&#45;xhk</title>
<path fill="none" stroke="black" d="M36.86,-85.89C41.61,-73.65 47.91,-57.42 52.67,-45.15"/>
</g>
<!-- nvd -->
<g id="node4" class="node">
<title>nvd</title>
<ellipse fill="none" stroke="black" cx="70.18" cy="-176.09" rx="27" ry="18"/>
<text text-anchor="middle" x="70.18" y="-171.04" font-family="Times,serif" font-size="14.00">nvd</text>
</g>
<!-- jqt&#45;&#45;nvd -->
<g id="edge3" class="edge">
<title>jqt&#45;&#45;nvd</title>
<path fill="none" stroke="black" d="M39.51,-120.77C45.92,-132.32 54.33,-147.5 60.72,-159.03"/>
</g>
<!-- ntq -->
<g id="node5" class="node">
<title>ntq</title>
<ellipse fill="none" stroke="black" cx="27" cy="-54.66" rx="27" ry="18"/>
<text text-anchor="middle" x="27" y="-49.61" font-family="Times,serif" font-size="14.00">ntq</text>
</g>
<!-- jqt&#45;&#45;ntq -->
<g id="edge4" class="edge">
<title>jqt&#45;&#45;ntq</title>
<path fill="none" stroke="black" d="M28.87,-85.37C28.63,-81.35 28.37,-77.09 28.12,-73.06"/>
</g>
<!-- hfx -->
<g id="node11" class="node">
<title>hfx</title>
<ellipse fill="none" stroke="black" cx="135.44" cy="-57.37" rx="27" ry="18"/>
<text text-anchor="middle" x="135.44" y="-52.32" font-family="Times,serif" font-size="14.00">hfx</text>
</g>
<!-- rhn&#45;&#45;hfx -->
<g id="edge19" class="edge">
<title>rhn&#45;&#45;hfx</title>
<path fill="none" stroke="black" d="M115.46,-34.01C117.57,-36.48 119.76,-39.03 121.86,-41.5"/>
</g>
<!-- bvb -->
<g id="node12" class="node">
<title>bvb</title>
<ellipse fill="none" stroke="black" cx="88.73" cy="-85.53" rx="27" ry="18"/>
<text text-anchor="middle" x="88.73" y="-80.48" font-family="Times,serif" font-size="14.00">bvb</text>
</g>
<!-- rhn&#45;&#45;bvb -->
<g id="edge18" class="edge">
<title>rhn&#45;&#45;bvb</title>
<path fill="none" stroke="black" d="M98.27,-36.1C96.4,-45.78 94.1,-57.68 92.23,-67.38"/>
</g>
<!-- xhk&#45;&#45;rhn -->
<g id="edge10" class="edge">
<title>xhk&#45;&#45;rhn</title>
<path fill="none" stroke="black" d="M85.59,-21.56C85.72,-21.53 85.86,-21.5 85.99,-21.47"/>
</g>
<!-- xhk&#45;&#45;ntq -->
<g id="edge12" class="edge">
<title>xhk&#45;&#45;ntq</title>
<path fill="none" stroke="black" d="M42.54,-41.61C42.42,-41.72 42.29,-41.82 42.17,-41.92"/>
</g>
<!-- xhk&#45;&#45;hfx -->
<g id="edge9" class="edge">
<title>xhk&#45;&#45;hfx</title>
<path fill="none" stroke="black" d="M83.18,-36.63C92.31,-40.26 102.75,-44.4 111.88,-48.02"/>
</g>
<!-- xhk&#45;&#45;bvb -->
<g id="edge11" class="edge">
<title>xhk&#45;&#45;bvb</title>
<path fill="none" stroke="black" d="M68.34,-44.76C72.03,-52.13 76.31,-60.69 80,-68.06"/>
</g>
<!-- lhk -->
<g id="node15" class="node">
<title>lhk</title>
<ellipse fill="none" stroke="black" cx="94.64" cy="-245.93" rx="27" ry="18"/>
<text text-anchor="middle" x="94.64" y="-240.88" font-family="Times,serif" font-size="14.00">lhk</text>
</g>
<!-- nvd&#45;&#45;lhk -->
<g id="edge29" class="edge">
<title>nvd&#45;&#45;lhk</title>
<path fill="none" stroke="black" d="M76.48,-194.07C80.16,-204.58 84.78,-217.79 88.44,-228.24"/>
</g>
<!-- ntq&#45;&#45;hfx -->
<g id="edge28" class="edge">
<title>ntq&#45;&#45;hfx</title>
<path fill="none" stroke="black" d="M54.36,-55.34C70.8,-55.75 91.65,-56.27 108.08,-56.68"/>
</g>
<!-- rsh -->
<g id="node6" class="node">
<title>rsh</title>
<ellipse fill="none" stroke="black" cx="231.12" cy="-209.22" rx="27" ry="18"/>
<text text-anchor="middle" x="231.12" y="-204.17" font-family="Times,serif" font-size="14.00">rsh</text>
</g>
<!-- frs -->
<g id="node7" class="node">
<title>frs</title>
<ellipse fill="none" stroke="black" cx="170.32" cy="-282.42" rx="27" ry="18"/>
<text text-anchor="middle" x="170.32" y="-277.37" font-family="Times,serif" font-size="14.00">frs</text>
</g>
<!-- rsh&#45;&#45;frs -->
<g id="edge5" class="edge">
<title>rsh&#45;&#45;frs</title>
<path fill="none" stroke="black" d="M217.92,-225.1C207.8,-237.3 193.87,-254.07 183.7,-266.32"/>
</g>
<!-- pzl -->
<g id="node8" class="node">
<title>pzl</title>
<ellipse fill="none" stroke="black" cx="167.09" cy="-136.8" rx="27" ry="18"/>
<text text-anchor="middle" x="167.09" y="-131.75" font-family="Times,serif" font-size="14.00">pzl</text>
</g>
<!-- rsh&#45;&#45;pzl -->
<g id="edge6" class="edge">
<title>rsh&#45;&#45;pzl</title>
<path fill="none" stroke="black" d="M217.22,-193.5C206.48,-181.36 191.69,-164.62 180.96,-152.49"/>
</g>
<!-- lsr -->
<g id="node9" class="node">
<title>lsr</title>
<ellipse fill="none" stroke="black" cx="179.97" cy="-225.03" rx="27" ry="18"/>
<text text-anchor="middle" x="179.97" y="-219.98" font-family="Times,serif" font-size="14.00">lsr</text>
</g>
<!-- rsh&#45;&#45;lsr -->
<g id="edge7" class="edge">
<title>rsh&#45;&#45;lsr</title>
<path fill="none" stroke="black" d="M206.14,-216.94C205.74,-217.06 205.33,-217.19 204.92,-217.32"/>
</g>
<!-- rzs -->
<g id="node10" class="node">
<title>rzs</title>
<ellipse fill="none" stroke="black" cx="200.95" cy="-171.44" rx="27" ry="18"/>
<text text-anchor="middle" x="200.95" y="-166.39" font-family="Times,serif" font-size="14.00">rzs</text>
</g>
<!-- rsh&#45;&#45;rzs -->
<g id="edge8" class="edge">
<title>rsh&#45;&#45;rzs</title>
<path fill="none" stroke="black" d="M218.15,-192.98C216.74,-191.22 215.31,-189.43 213.91,-187.67"/>
</g>
<!-- frs&#45;&#45;lhk -->
<g id="edge33" class="edge">
<title>frs&#45;&#45;lhk</title>
<path fill="none" stroke="black" d="M148.02,-271.67C138.17,-266.92 126.61,-261.35 116.78,-256.6"/>
</g>
<!-- pzl&#45;&#45;nvd -->
<g id="edge24" class="edge">
<title>pzl&#45;&#45;nvd</title>
<path fill="none" stroke="black" d="M143.63,-146.31C128.39,-152.49 108.62,-160.51 93.42,-166.66"/>
</g>
<!-- pzl&#45;&#45;lsr -->
<g id="edge22" class="edge">
<title>pzl&#45;&#45;lsr</title>
<path fill="none" stroke="black" d="M169.76,-155.09C171.97,-170.23 175.1,-191.64 177.3,-206.78"/>
</g>
<!-- pzl&#45;&#45;hfx -->
<g id="edge23" class="edge">
<title>pzl&#45;&#45;hfx</title>
<path fill="none" stroke="black" d="M160.07,-119.17C154.86,-106.1 147.78,-88.35 142.55,-75.22"/>
</g>
<!-- lsr&#45;&#45;frs -->
<g id="edge32" class="edge">
<title>lsr&#45;&#45;frs</title>
<path fill="none" stroke="black" d="M176.92,-243.19C175.79,-249.89 174.52,-257.48 173.39,-264.19"/>
</g>
<!-- lsr&#45;&#45;rzs -->
<g id="edge31" class="edge">
<title>lsr&#45;&#45;rzs</title>
<path fill="none" stroke="black" d="M186.96,-207.19C189.25,-201.34 191.79,-194.85 194.07,-189.03"/>
</g>
<!-- lsr&#45;&#45;lhk -->
<g id="edge30" class="edge">
<title>lsr&#45;&#45;lhk</title>
<path fill="none" stroke="black" d="M154.37,-231.3C143.57,-233.95 131.02,-237.02 120.22,-239.66"/>
</g>
<!-- bvb&#45;&#45;ntq -->
<g id="edge21" class="edge">
<title>bvb&#45;&#45;ntq</title>
<path fill="none" stroke="black" d="M66.79,-74.56C60.97,-71.65 54.68,-68.5 48.87,-65.59"/>
</g>
<!-- bvb&#45;&#45;hfx -->
<g id="edge20" class="edge">
<title>bvb&#45;&#45;hfx</title>
<path fill="none" stroke="black" d="M109.08,-73.26C111.05,-72.07 113.04,-70.87 115.01,-69.68"/>
</g>
<!-- cmg -->
<g id="node13" class="node">
<title>cmg</title>
<ellipse fill="none" stroke="black" cx="116.32" cy="-162.5" rx="27.3" ry="18"/>
<text text-anchor="middle" x="116.32" y="-157.45" font-family="Times,serif" font-size="14.00">cmg</text>
</g>
<!-- cmg&#45;&#45;nvd -->
<g id="edge14" class="edge">
<title>cmg&#45;&#45;nvd</title>
<path fill="none" stroke="black" d="M91.09,-169.93C91,-169.95 90.92,-169.98 90.83,-170"/>
</g>
<!-- cmg&#45;&#45;rzs -->
<g id="edge17" class="edge">
<title>cmg&#45;&#45;rzs</title>
<path fill="none" stroke="black" d="M143.56,-165.38C153.32,-166.41 164.32,-167.57 174.05,-168.6"/>
</g>
<!-- cmg&#45;&#45;bvb -->
<g id="edge16" class="edge">
<title>cmg&#45;&#45;bvb</title>
<path fill="none" stroke="black" d="M109.92,-144.65C105.46,-132.21 99.54,-115.7 95.09,-103.28"/>
</g>
<!-- qnr -->
<g id="node14" class="node">
<title>qnr</title>
<ellipse fill="none" stroke="black" cx="126.76" cy="-224.63" rx="27" ry="18"/>
<text text-anchor="middle" x="126.76" y="-219.58" font-family="Times,serif" font-size="14.00">qnr</text>
</g>
<!-- cmg&#45;&#45;qnr -->
<g id="edge13" class="edge">
<title>cmg&#45;&#45;qnr</title>
<path fill="none" stroke="black" d="M119.39,-180.81C120.76,-188.97 122.37,-198.55 123.74,-206.67"/>
</g>
<!-- cmg&#45;&#45;lhk -->
<g id="edge15" class="edge">
<title>cmg&#45;&#45;lhk</title>
<path fill="none" stroke="black" d="M111.61,-180.6C107.98,-194.6 102.97,-213.88 99.33,-227.86"/>
</g>
<!-- qnr&#45;&#45;nvd -->
<g id="edge25" class="edge">
<title>qnr&#45;&#45;nvd</title>
<path fill="none" stroke="black" d="M110.09,-210.33C102.78,-204.06 94.23,-196.73 86.92,-190.45"/>
</g>
<!-- qnr&#45;&#45;frs -->
<g id="edge27" class="edge">
<title>qnr&#45;&#45;frs</title>
<path fill="none" stroke="black" d="M139.12,-241.04C145.06,-248.91 152.15,-258.32 158.07,-266.18"/>
</g>
<!-- qnr&#45;&#45;rzs -->
<g id="edge26" class="edge">
<title>qnr&#45;&#45;rzs</title>
<path fill="none" stroke="black" d="M145.48,-211.21C156.73,-203.15 170.99,-192.92 182.24,-184.86"/>
</g>
</g>
</svg>
